<svg t="1727599132273" class="icon" viewBox="0 0 1024 1024" version="1.1" xmlns="http://www.w3.org/2000/svg" p-id="6250" width="200" height="200"><path d="M208.213333 901.12C153.6 938.666667 180.906667 1024 245.76 1024h529.066667c64.853333 0 92.16-85.333333 40.96-122.88l-54.613334-40.96-20.48-10.24-208.213333-58.026667c-13.653333-3.413333-23.893333-3.413333-37.546667 0l-208.213333 58.026667-20.48 10.24-58.026667 40.96z" fill="#1EF1FF" p-id="6251"></path><path d="M955.733333 474.453333C955.733333 785.066667 512 955.733333 512 955.733333S68.266667 802.133333 68.266667 474.453333C68.266667 211.626667 266.24 0 512 0s443.733333 211.626667 443.733333 474.453333z" fill="#1B6BFF" p-id="6252"></path><path d="M208.213333 901.12C153.6 938.666667 180.906667 1024 245.76 1024h529.066667c64.853333 0 92.16-85.333333 40.96-122.88l-54.613334-40.96-20.48-10.24-208.213333-58.026667c-13.653333-3.413333-23.893333-3.413333-37.546667 0l-208.213333 58.026667-20.48 10.24-58.026667 40.96z" fill="#185FE2" p-id="6253"></path><path d="M512 443.733333m-273.066667 0a273.066667 273.066667 0 1 0 546.133334 0 273.066667 273.066667 0 1 0-546.133334 0Z" fill="#FFFFFF" p-id="6254"></path><path d="M460.8 307.2c27.306667 0 51.2 23.893333 51.2 51.2v136.533333c0 27.306667-23.893333 51.2-51.2 51.2s-51.2-23.893333-51.2-51.2v-136.533333c0-27.306667 23.893333-51.2 51.2-51.2z" fill="#1B6BFF" p-id="6255"></path><path d="M409.6 494.933333c0-27.306667 23.893333-51.2 51.2-51.2h136.533333c27.306667 0 51.2 23.893333 51.2 51.2s-23.893333 51.2-51.2 51.2h-136.533333c-27.306667 0-51.2-23.893333-51.2-51.2z" fill="#1B6BFF" p-id="6256"></path></svg>